<mxfile host="app.diagrams.net" modified="2023-06-28T19:07:26.145Z" agent="Mozilla/5.0 (Windows NT 10.0; Win64; x64) AppleWebKit/537.36 (KHTML, like Gecko) Chrome/114.0.0.0 Safari/537.36" etag="oLDZIKqvCwT_tJFHdOON" version="21.5.1" type="github">
  <diagram name="PÃ¡gina-1" id="JxtQS1SuguC9joptJnui">
    <mxGraphModel dx="1887" dy="859" grid="1" gridSize="10" guides="1" tooltips="1" connect="1" arrows="1" fold="1" page="1" pageScale="1" pageWidth="827" pageHeight="1169" math="0" shadow="0">
      <root>
        <mxCell id="0" />
        <mxCell id="1" parent="0" />
      </root>
    </mxGraphModel>
  </diagram>
</mxfile>
